<svg id="visual" viewBox="0 0 900 600" width="900" height="600" xmlns="http://www.w3.org/2000/svg" xmlns:xlink="http://www.w3.org/1999/xlink" version="1.1"><rect x="0" y="0" width="900" height="600" fill="#001220"></rect><path d="M0 384L21.5 381.3C43 378.7 86 373.3 128.8 383.7C171.7 394 214.3 420 257.2 429.7C300 439.3 343 432.7 385.8 423.2C428.7 413.7 471.3 401.3 514.2 391.2C557 381 600 373 642.8 372.2C685.7 371.3 728.3 377.7 771.2 387.8C814 398 857 412 878.5 419L900 426L900 601L878.5 601C857 601 814 601 771.2 601C728.3 601 685.7 601 642.8 601C600 601 557 601 514.2 601C471.3 601 428.7 601 385.8 601C343 601 300 601 257.2 601C214.3 601 171.7 601 128.8 601C86 601 43 601 21.5 601L0 601Z" fill="#2772b9"></path><path d="M0 437L21.5 430.5C43 424 86 411 128.8 409C171.7 407 214.3 416 257.2 427.5C300 439 343 453 385.8 462C428.7 471 471.3 475 514.2 463C557 451 600 423 642.8 415.3C685.7 407.7 728.3 420.3 771.2 427.3C814 434.3 857 435.7 878.5 436.3L900 437L900 601L878.5 601C857 601 814 601 771.2 601C728.3 601 685.7 601 642.8 601C600 601 557 601 514.2 601C471.3 601 428.7 601 385.8 601C343 601 300 601 257.2 601C214.3 601 171.7 601 128.8 601C86 601 43 601 21.5 601L0 601Z" fill="#1c63af"></path><path d="M0 466L21.5 465.2C43 464.3 86 462.7 128.8 467.8C171.7 473 214.3 485 257.2 489.7C300 494.3 343 491.7 385.8 494C428.7 496.3 471.3 503.7 514.2 504C557 504.3 600 497.7 642.8 494.8C685.7 492 728.3 493 771.2 487.2C814 481.3 857 468.7 878.5 462.3L900 456L900 601L878.5 601C857 601 814 601 771.2 601C728.3 601 685.7 601 642.8 601C600 601 557 601 514.2 601C471.3 601 428.7 601 385.8 601C343 601 300 601 257.2 601C214.3 601 171.7 601 128.8 601C86 601 43 601 21.5 601L0 601Z" fill="#1454a4"></path><path d="M0 492L21.5 498.5C43 505 86 518 128.8 517C171.7 516 214.3 501 257.2 496.3C300 491.7 343 497.3 385.8 500.3C428.7 503.3 471.3 503.7 514.2 509.5C557 515.3 600 526.7 642.8 528.8C685.7 531 728.3 524 771.2 523.5C814 523 857 529 878.5 532L900 535L900 601L878.5 601C857 601 814 601 771.2 601C728.3 601 685.7 601 642.8 601C600 601 557 601 514.2 601C471.3 601 428.7 601 385.8 601C343 601 300 601 257.2 601C214.3 601 171.7 601 128.8 601C86 601 43 601 21.5 601L0 601Z" fill="#124598"></path><path d="M0 530L21.5 534.5C43 539 86 548 128.8 551.2C171.7 554.3 214.3 551.7 257.2 550C300 548.3 343 547.7 385.8 551.5C428.7 555.3 471.3 563.7 514.2 563.2C557 562.7 600 553.3 642.8 551.7C685.7 550 728.3 556 771.2 557.3C814 558.7 857 555.3 878.5 553.7L900 552L900 601L878.5 601C857 601 814 601 771.2 601C728.3 601 685.7 601 642.8 601C600 601 557 601 514.2 601C471.3 601 428.7 601 385.8 601C343 601 300 601 257.2 601C214.3 601 171.7 601 128.8 601C86 601 43 601 21.5 601L0 601Z" fill="#14358c"></path></svg>